<?xml version="1.0" standalone="no"?>
<!DOCTYPE svg PUBLIC "-//W3C//DTD SVG 20010904//EN"
 "http://www.w3.org/TR/2001/REC-SVG-20010904/DTD/svg10.dtd">
<svg version="1.0" xmlns="http://www.w3.org/2000/svg"
 width="260.000000pt" height="260.000000pt" viewBox="0 0 260.000000 260.000000"
 preserveAspectRatio="xMidYMid meet">
<metadata>
Created by potrace 1.11, written by Peter Selinger 2001-2013
</metadata>
<g transform="translate(0.000000,260.000000) scale(0.100000,-0.100000)"
fill="#000000" stroke="none">
<path d="M517 2238 c-9 -5 -17 -7 -17 -4 0 11 -147 -46 -192 -75 -107 -69
-180 -187 -197 -319 -11 -83 -9 -1020 2 -1060 4 -14 9 -39 11 -57 32 -250 289
-394 639 -358 151 15 302 103 381 221 25 38 51 123 60 194 5 36 18 248 19 310
l1 35 -203 0 c-112 0 -204 -3 -206 -6 -2 -3 -6 -50 -9 -105 -9 -161 -20 -245
-38 -278 -37 -69 -123 -89 -170 -38 -36 37 -45 63 -54 162 -15 176 -9 876 10
955 17 75 61 125 110 125 47 0 100 -41 114 -87 15 -54 28 -166 31 -273 l1 -46
203 2 c111 1 205 2 208 3 3 0 4 20 3 44 -1 23 -5 89 -8 145 -12 211 -59 327
-165 403 -74 54 -148 87 -236 105 -49 11 -280 12 -298 2z"/>
<path d="M1390 1303 l0 -915 403 5 c500 7 540 12 609 85 76 79 91 148 91 422
1 162 -3 216 -16 260 -32 106 -80 156 -188 195 l-61 22 62 22 c131 48 167 112
168 302 2 297 -82 435 -298 490 -78 20 -114 22 -427 24 l-343 3 0 -915z m620
559 c37 -40 43 -65 42 -172 -2 -137 -9 -162 -53 -177 -19 -7 -56 -12 -84 -12
l-50 -1 0 200 c-1 192 0 199 20 203 30 5 105 -19 125 -41z m-24 -668 c30 -10
46 -24 54 -44 14 -35 20 -286 8 -345 -10 -47 -46 -80 -97 -90 -20 -4 -46 -9
-57 -11 -12 -2 -24 2 -26 8 -4 11 -3 443 1 489 1 20 52 17 117 -7z"/>
</g>
</svg>
